<?xml version="1.0" encoding="UTF-8"?>
<svg version="1.1" xmlns="http://www.w3.org/2000/svg" width="1563" height="1563">
<path d="M0 0 C4.94049068 0.0072088 9.88071313 -0.00363422 14.82116085 -0.02430397 C60.30027412 -0.21007746 105.42703783 1.38262457 150.43517452 8.44224876 C152.38931271 8.7390554 152.38931271 8.7390554 154.38292843 9.04185814 C221.83722045 19.34007371 288.65807683 39.37829026 350.43517452 68.44224876 C351.3916589 68.89035911 352.34814327 69.33846946 353.33361202 69.80015892 C377.01754346 80.93025074 399.96991728 93.01983697 422.43517452 106.44224876 C423.2482507 106.92548607 424.06132687 107.40872337 424.89904171 107.90660423 C447.59203961 121.42165182 469.44753554 136.41120468 490.43517452 152.44224876 C491.22335568 153.04117943 491.22335568 153.04117943 492.02745968 153.6522097 C503.5477567 162.40777213 514.68967224 171.58898075 525.70421749 180.97008079 C527.50866271 182.50475 529.31754972 184.03408297 531.12658077 185.56334251 C541.92581423 194.72097858 541.92581423 194.72097858 546.74732357 199.75534385 C548.48421266 201.49125941 550.29362852 203.08286064 552.15953976 204.67882103 C556.26130872 208.24607322 560.13375634 211.99582085 563.97033077 215.84459251 C564.65268292 216.52598793 565.33503506 217.20738334 566.03806454 217.90942711 C567.46861889 219.33930617 568.8979322 220.77042787 570.32604367 222.20274681 C572.49216526 224.37422587 574.66357626 226.54031201 576.83556515 228.70592064 C578.2349744 230.10599078 579.63407336 231.50637115 581.03283077 232.90709251 C581.67156628 233.54380378 582.31030178 234.18051506 582.96839291 234.83652061 C586.77274721 238.66039578 590.3933369 242.59736596 593.91468197 246.6836428 C595.99444955 249.08910782 598.15254905 251.41913735 600.31017452 253.75474876 C604.76206108 258.64112874 608.96820582 263.67760419 613.11583859 268.82261986 C614.58982316 270.63209684 616.08507707 272.42258481 617.58361202 274.21178001 C626.60048793 285.00187605 635.10306477 296.11716044 643.43517452 307.44224876 C644.0012341 308.20682396 644.56729367 308.97139915 645.15050656 309.75914329 C653.7248603 321.35352184 661.72545877 333.2573399 669.43517452 345.44224876 C670.2475256 346.72470482 670.2475256 346.72470482 671.07628781 348.03306907 C679.23655646 360.96056329 686.98606659 374.09317281 694.43517452 387.44224876 C694.92872433 388.32493431 695.42227413 389.20761986 695.93077999 390.11705345 C713.56635353 421.76122933 728.72934228 454.40929594 741.30138546 488.38463157 C742.40667062 491.36537907 743.53319095 494.33743255 744.66173702 497.30943626 C767.24056345 557.53625068 780.88378386 621.9943514 786.23166615 686.02943653 C786.37528664 687.73221307 786.52232609 689.43470291 786.67180973 691.13697475 C788.18790664 708.59525254 788.76272409 725.93537374 788.76968867 743.4557392 C788.77114264 745.528867 788.77547091 747.60197057 788.7806831 749.67509216 C788.79903601 757.005453 788.80737459 764.33574266 788.80577999 771.66612571 C788.80472092 777.60438771 788.81870797 783.54238433 788.84679562 789.48057884 C789.06894745 837.53491346 787.1265069 884.91810241 779.43517452 932.44224876 C779.32580563 933.12341758 779.21643673 933.80458641 779.10375363 934.50639671 C768.50828312 1000.20260348 748.7686166 1065.2048902 720.43517452 1125.44224876 C719.99238156 1126.38809837 719.54958859 1127.33394798 719.09337765 1128.3084597 C701.78478164 1165.16935862 682.32887284 1201.13339639 658.83410031 1234.45787376 C657.35001087 1236.56305332 655.8747671 1238.67426702 654.40001827 1240.78599876 C648.56262554 1249.12381364 642.61268661 1257.35212617 636.43517452 1265.44224876 C635.6694714 1266.45287376 634.90376827 1267.46349876 634.11486202 1268.50474876 C620.86390467 1285.92959622 606.85281781 1302.74701471 591.95104367 1318.78282493 C590.84847967 1319.9898031 589.76105859 1321.21066766 588.68297726 1322.43956321 C581.80271939 1330.2432133 574.46118553 1337.56778329 567.09655148 1344.9112429 C564.8703759 1347.13204183 562.6496182 1349.35815842 560.42931515 1351.58482689 C558.99278682 1353.02069461 557.55594841 1354.45625219 556.11876827 1355.89146751 C555.46645733 1356.54580269 554.81414639 1357.20013786 554.14206845 1357.87430137 C550.28265997 1361.71443113 546.31365578 1365.37337146 542.18856198 1368.92697471 C539.78446646 1371.00458942 537.45648771 1373.16128448 535.12267452 1375.31724876 C530.24180643 1379.76411354 525.21141928 1383.96653777 520.07238156 1388.10972923 C518.21129385 1389.6244648 516.36760246 1391.15896661 514.52501827 1392.69615501 C505.04606382 1400.59326981 495.3856772 1408.14996878 485.43517452 1415.44224876 C484.75438839 1415.94546654 484.07360226 1416.44868431 483.37218624 1416.96715111 C457.24060973 1436.27227154 429.80329378 1453.62792515 401.43517452 1469.44224876 C400.52493527 1469.95223411 399.61469601 1470.46221946 398.67687374 1470.98765892 C362.77433505 1491.03339909 325.23471645 1507.83663239 286.43517452 1521.44224876 C284.70364132 1522.05229759 284.70364132 1522.05229759 282.93712765 1522.67467064 C228.24493292 1541.80052815 171.32798283 1554.46277765 113.67716557 1560.21841377 C112.23835664 1560.36206099 110.79965921 1560.50683187 109.36110646 1560.65302223 C77.57835881 1563.86604809 45.77853268 1563.9415228 13.87034887 1563.88449746 C8.92985825 1563.8772888 3.98963586 1563.88813161 -0.9508118 1563.9088015 C-36.31749575 1564.05327647 -71.35888029 1563.19454628 -106.56482548 1559.44224876 C-107.34588217 1559.35903625 -108.12693886 1559.27582374 -108.93166393 1559.19008964 C-131.34650863 1556.77975416 -153.47001128 1552.86535788 -175.56482548 1548.44224876 C-176.58419193 1548.23855675 -176.58419193 1548.23855675 -177.62415165 1548.03074974 C-233.2605944 1536.84347395 -287.09264585 1518.14818586 -338.56482548 1494.44224876 C-339.59349735 1493.96851829 -340.62216923 1493.49478782 -341.68201298 1493.00670189 C-369.32233135 1480.18876799 -395.72735606 1465.54504869 -421.56482548 1449.44224876 C-423.32102051 1448.3597057 -425.07750555 1447.2776329 -426.83435673 1446.19615501 C-438.38348692 1439.04352223 -449.53461365 1431.3683181 -460.56482548 1423.44224876 C-461.38015751 1422.85653099 -462.19548954 1422.27081321 -463.0355286 1421.66734642 C-473.59938978 1414.04747763 -483.84411012 1406.11916335 -493.88416141 1397.82310814 C-496.15171258 1395.96005332 -498.45063895 1394.1378754 -500.75232548 1392.31724876 C-510.79991119 1384.28590098 -520.40617022 1375.85334648 -529.79553837 1367.06798118 C-531.04972363 1365.91555677 -532.31876866 1364.77920974 -533.59778446 1363.65440696 C-541.3890691 1356.78524551 -548.70204442 1349.45654166 -556.03381962 1342.10362571 C-558.25461855 1339.87745014 -560.48073514 1337.65669244 -562.7074036 1335.43638939 C-564.14327132 1333.99986105 -565.5788289 1332.56302265 -567.01404423 1331.12584251 C-567.6683794 1330.47353157 -568.32271457 1329.82122062 -568.99687809 1329.14914268 C-572.83700785 1325.2897342 -576.49594817 1321.32073002 -580.04955143 1317.19563621 C-582.12716613 1314.79154069 -584.2838612 1312.46356194 -586.43982548 1310.12974876 C-590.88166856 1305.25439246 -595.08037194 1300.23009387 -599.21912235 1295.09703392 C-600.77459624 1293.1842977 -602.34829099 1291.28740107 -603.92420048 1289.39146751 C-610.70098972 1281.23379613 -617.32714322 1273.02429482 -623.56482548 1264.44224876 C-624.04242313 1263.78676048 -624.52002079 1263.1312722 -625.0120911 1262.45592064 C-628.8861296 1257.13454521 -632.7307616 1251.79247454 -636.56482548 1246.44224876 C-637.34527225 1245.35605247 -637.34527225 1245.35605247 -638.14148563 1244.24791282 C-650.15814689 1227.50019237 -661.11878528 1210.20866216 -671.56482548 1192.44224876 C-672.28557255 1191.22142601 -672.28557255 1191.22142601 -673.02088016 1189.97594017 C-682.15433602 1174.45153873 -690.4522879 1158.51610336 -698.56482548 1142.44224876 C-699.09076298 1141.40648704 -699.61670048 1140.37072532 -700.15857548 1139.30357689 C-714.24221482 1111.41136927 -725.57436018 1082.02487542 -735.56482548 1052.44224876 C-735.91061649 1051.41873314 -736.25640751 1050.39521751 -736.61267704 1049.34068626 C-753.08691368 1000.12252751 -764.39168296 949.55554174 -770.31482548 898.00474876 C-770.41605716 897.13032127 -770.51728885 896.25589378 -770.62158817 895.35496849 C-773.47587431 870.38497122 -774.88931573 845.49207896 -774.89933962 820.36029595 C-774.90079494 818.29134272 -774.90512546 816.22241367 -774.91033405 814.15346664 C-774.92867903 806.83491609 -774.93702653 799.51643677 -774.93543094 792.197864 C-774.93437193 786.2732736 -774.94836076 780.34894925 -774.97644657 774.4244265 C-775.36840062 689.79705365 -765.98883168 607.88925916 -699.56482548 423.44224876 C-698.76625126 421.77718284 -698.76625126 421.77718284 -697.95154423 420.07847923 C-690.71041204 405.06986736 -682.81826013 390.58278492 -674.25720829 376.28892845 C-672.64394385 373.57533016 -671.06349863 370.84569733 -669.49451298 368.10631126 C-656.60399452 345.70530747 -642.05391345 324.12780537 -626.56482548 303.44224876 C-626.04404423 302.74422142 -625.52326298 302.04619407 -624.98670048 301.32701439 C-616.83219328 290.43124688 -608.29255227 279.88211335 -599.56482548 269.44224876 C-598.59602186 268.27562661 -597.62726891 267.1089624 -596.65857548 265.94224876 C-590.72062641 258.82451187 -584.52612278 251.98355187 -578.19446415 245.21544212 C-577.02947561 243.94782987 -575.88026521 242.6656437 -574.74182743 241.37413353 C-568.14326148 233.90146173 -561.13869653 226.86404464 -554.08069462 219.82774681 C-551.99937358 217.7518045 -549.92347735 215.67054454 -547.8480286 213.58873314 C-546.5026461 212.24401124 -545.15695353 210.89959947 -543.81091923 209.55553001 C-543.20235584 208.9449424 -542.59379246 208.33435478 -541.96678776 207.70526451 C-538.22144261 203.9798959 -534.35677785 200.44289269 -530.35495609 196.99426597 C-527.76197468 194.7461888 -525.26353127 192.40635794 -522.75232548 190.06724876 C-518.10444006 185.77349496 -513.320662 181.70693036 -508.38904423 177.73912376 C-505.90246868 175.71684655 -503.46178465 173.65049188 -501.03259891 171.55992454 C-487.88217211 160.26797314 -473.8687236 150.07576185 -459.76599735 140.01549095 C-457.64680367 138.50084098 -455.53502926 136.97633737 -453.42420048 135.45006126 C-400.75303391 97.56697565 -341.55475556 67.35631545 -280.56482548 45.44224876 C-279.86440128 45.18937095 -279.16397709 44.93649315 -278.44232792 44.67595237 C-219.92490009 23.57037281 -159.44104672 9.83567539 -97.56482548 3.44224876 C-96.88339292 3.37157503 -96.20196037 3.3009013 -95.49987835 3.22808594 C-63.72121324 -0.02081919 -31.90633065 -0.05702114 0 0 Z " fill="#FEFEFE" transform="translate(774.5648254752159,-0.44224876165390015)"/>
<path d="M0 0 C4.06997319 3.29061662 7.66995516 6.65541943 11.125 10.58984375 C15.9278541 15.97344636 20.95031459 21.09878292 26.0625 26.1875 C26.90876953 27.03763672 27.75503906 27.88777344 28.62695312 28.76367188 C33.5901057 33.71917117 38.67854881 38.43464797 44 43 C45.13370631 44.00925748 46.26527684 45.02092002 47.39453125 46.03515625 C56.41316762 54.05887747 65.87296251 61.30358732 75.68164062 68.33300781 C77.83552066 69.88173284 79.97397489 71.44938406 82.109375 73.0234375 C125.18997147 104.48803412 174.24760184 124.77428055 225 140 C225 166.07 225 192.14 225 219 C244.47 219 263.94 219 284 219 C281.11690139 256.48028198 281.11690139 256.48028198 279.5 268.9375 C279.39389404 269.77224854 279.28778809 270.60699707 279.1784668 271.46704102 C278.35070188 277.48961947 277.08760595 283.38894044 275.78515625 289.32495117 C274.75219804 294.15987653 273.85934121 299.01637699 272.96044922 303.87768555 C261.4469236 365.61946125 238.62057598 426.31528379 206 480 C205.53851562 480.76666992 205.07703125 481.53333984 204.6015625 482.32324219 C190.12009285 506.33834602 172.90192966 528.32601443 154 549 C153.04144717 550.06360431 152.08312664 551.127418 151.125 552.19140625 C145.06959353 558.87874049 138.81155275 565.07020165 132 571 C130.41604574 572.4576589 128.83272474 573.91600618 127.25 575.375 C106.55012248 593.95016225 83.09065798 609.13643678 57.99365234 621.05273438 C56.66256692 621.68518741 55.33474201 622.32454795 54.01025391 622.97070312 C32.35113953 633.49428152 7.67029556 644.34193085 -16.25 637 C-17.29704102 636.68458252 -18.34408203 636.36916504 -19.42285156 636.04418945 C-56.65116957 624.60640434 -90.41194705 605.65564407 -120.15625 580.55126953 C-121.90473275 579.08015468 -123.66857779 577.63001372 -125.4375 576.18359375 C-138.60756862 565.29735206 -151.50629607 553.20171754 -161.91796875 539.6171875 C-163.79705113 537.25511396 -165.75436935 535.0352361 -167.77734375 532.796875 C-171.90991507 528.17545364 -175.67952098 523.34968329 -179.375 518.375 C-180.02710449 517.499646 -180.67920898 516.62429199 -181.35107422 515.72241211 C-186.83572406 508.31088787 -192.05179024 500.7784077 -197 493 C-197.49177734 492.23139648 -197.98355469 491.46279297 -198.49023438 490.67089844 C-251.17654627 408.01236113 -277.87609674 311.51127985 -284.0625 172.625 C-284.0574645 170.50911567 -284.05290529 168.39323015 -284.04882812 166.27734375 C-284.03800888 161.18486545 -284.02086279 156.09244664 -284 151 C-283.0519751 150.86013672 -282.1039502 150.72027344 -281.12719727 150.57617188 C-195.10803798 137.76625778 -114.29930659 104.67096203 -41 41 C-40.07960938 40.19175781 -39.15921875 39.38351562 -38.2109375 38.55078125 C-30.93423591 32.03949639 -24.03776049 25.14195194 -17.125 18.25 C-16.3681189 17.49713715 -16.3681189 17.49713715 -15.59594727 16.72906494 C-10.17528589 11.33023618 -4.86900596 5.90882757 0 0 Z " fill="#289DD7" transform="translate(769,296)"/>
<path d="M0 0 C0 39.6 0 79.2 0 120 C3.63 120 7.26 120 11 120 C13.97539673 120.59613445 16.64097465 121.21267567 19.5 122.125 C20.59272217 122.4638623 20.59272217 122.4638623 21.70751953 122.80957031 C36.88636946 127.72027591 48.75788679 137.05681171 58 150 C58.70576172 150.96679688 58.70576172 150.96679688 59.42578125 151.953125 C69.26953726 166.4597128 72.37927325 185.04067611 69.34765625 202.16015625 C66.00570752 218.05404309 58.03648141 232.00245699 46 243 C45.34 243 44.68 243 44 243 C46.11706116 248.61306015 48.23507365 254.22576032 50.35379028 259.8381958 C51.11660808 261.85922935 51.87920246 263.88034725 52.64157104 265.90155029 C56.96266504 277.35699518 61.30035045 288.8055437 65.69140625 300.234375 C66.43363512 302.16941772 67.17582342 304.10447601 67.91796875 306.03955078 C68.98592976 308.82374831 70.0556242 311.60721382 71.13085938 314.38861084 C72.12410149 316.95796095 73.11142812 319.52951369 74.09765625 322.1015625 C74.39370255 322.86200867 74.68974884 323.62245483 74.99476624 324.40594482 C76.14255342 327.41275235 77 329.75230836 77 333 C51.59 333 26.18 333 0 333 C0 380.85 0 428.7 0 478 C-7.0578233 476.0751391 -13.49057295 474.23006082 -20.125 471.375 C-20.93775391 471.02655029 -21.75050781 470.67810059 -22.58789062 470.3190918 C-44.5794468 460.72662105 -63.77836787 447.53600109 -82 432 C-83.29550781 430.90171875 -83.29550781 430.90171875 -84.6171875 429.78125 C-96.70971775 419.19519658 -108.13289029 407.68628391 -118 395 C-118.84820313 393.99195313 -119.69640625 392.98390625 -120.5703125 391.9453125 C-170.6805475 332.15825759 -197.93804392 253.9528557 -211 178 C-211.15597656 177.11441406 -211.31195312 176.22882813 -211.47265625 175.31640625 C-213.28023096 165.00834509 -214.50952695 154.72632156 -215.35424805 144.29370117 C-215.73130857 139.35563767 -215.73130857 139.35563767 -216.55078125 134.48046875 C-217.28837632 130.40766121 -217.10252332 126.31605909 -217.0625 122.1875 C-217.05798828 121.30384766 -217.05347656 120.42019531 -217.04882812 119.50976562 C-217.03709866 117.33981441 -217.01916495 115.16989828 -217 113 C-210.75911144 110.80341397 -204.49591672 108.83693958 -198.11914062 107.08178711 C-126.05652949 87.15997091 -60.46668867 50.28673281 -3.58984375 2.11328125 C-1 0 -1 0 0 0 Z " fill="#194B81" transform="translate(770,390)"/>
<path d="M0 0 C1.3921875 1.2065625 1.3921875 1.2065625 2.8125 2.4375 C6.82087189 5.87554242 10.91492229 9.2033908 15.01171875 12.53515625 C17.50076284 14.58821092 19.95022133 16.67800041 22.38867188 18.79052734 C46.11317859 39.23159823 72.74771421 56.65399897 100 72 C101.05960938 72.59917236 101.05960938 72.59917236 102.140625 73.21044922 C130.58296177 89.14725275 160.92043296 100.94137429 191.86474609 110.97607422 C195.91584684 112.29910151 199.95702627 113.65234209 204 115 C204 132.49 204 149.98 204 168 C213.24 168 222.48 168 232 168 C231.46134573 180.87459569 229.6929255 193.25968139 227.4375 205.9375 C227.26115021 206.94079346 227.08480042 207.94408691 226.90310669 208.9777832 C222.34284021 234.81169666 216.58493899 260.17860781 208 285 C207.64212402 286.05396973 207.28424805 287.10793945 206.91552734 288.19384766 C190.56027749 336.2213884 168.41501541 382.92026302 136.24804688 422.46386719 C135.05728832 423.92948785 133.87985085 425.40590149 132.703125 426.8828125 C118.73001991 444.27486883 102.86004128 461.56125565 85 475 C83.74558571 475.970698 82.49172223 476.94210802 81.23828125 477.9140625 C73.12493882 484.15577001 64.87729409 489.87848418 56 495 C55.00709961 495.58346191 55.00709961 495.58346191 53.99414062 496.17871094 C10.68179389 521.55982538 10.68179389 521.55982538 -9.20678711 516.4309082 C-11.40063925 515.73351972 -13.5401757 514.95454081 -15.6875 514.125 C-16.48929688 513.82037842 -17.29109375 513.51575684 -18.1171875 513.2019043 C-42.72042326 503.605983 -64.47919989 490.52702856 -85 474 C-85.56928223 473.54786133 -86.13856445 473.09572266 -86.72509766 472.62988281 C-95.27896941 465.79188458 -103.05350655 458.14885241 -110.8125 450.4375 C-111.3009137 449.95444397 -111.78932739 449.47138794 -112.2925415 448.97369385 C-118.99098483 442.33107323 -125.15766735 435.40987286 -131 428 C-131.91591919 426.85712524 -131.91591919 426.85712524 -132.8503418 425.69116211 C-140.76766229 415.78923328 -148.2199743 405.71239074 -155 395 C-155.5038623 394.20722656 -156.00772461 393.41445313 -156.52685547 392.59765625 C-184.49827735 348.43490665 -204.25921613 300.68000695 -217 250 C-217.36395267 248.67785186 -217.72996282 247.35626896 -218.09765625 246.03515625 C-228.89876393 206.29273224 -234.69482771 163.20862778 -234 122 C-233.43829102 121.87995605 -232.87658203 121.75991211 -232.29785156 121.63623047 C-219.52643562 118.88247486 -206.9926091 115.7198309 -194.53198242 111.78955078 C-192.71573002 111.22318686 -190.89499453 110.67112384 -189.0715332 110.12841797 C-180.34880329 107.51608455 -171.82626271 104.46411599 -163.3125 101.25 C-162.25776993 100.8531601 -162.25776993 100.8531601 -161.18173218 100.44830322 C-151.02203148 96.61854837 -140.96710312 92.64491155 -131.14453125 88.00830078 C-128.79212896 86.90226464 -126.42773791 85.82439077 -124.0625 84.74609375 C-87.75816931 68.02327301 -53.59319277 45.70004523 -23 20 C-22.4834082 19.5683252 -21.96681641 19.13665039 -21.43457031 18.69189453 C-14.15379024 12.60585374 -7.00454025 6.40369933 0 0 Z M-6 28.1875 C-14.05351441 35.17020145 -22.44618624 41.64482483 -31 48 C-31.73798828 48.54833496 -32.47597656 49.09666992 -33.23632812 49.66162109 C-86.69423775 89.19771629 -147.77365986 117.89734203 -212.13427734 134.46264648 C-214.06868926 134.95842796 -214.06868926 134.95842796 -216 136 C-216.21879558 147.18288528 -215.87340337 157.84467528 -214.2734375 168.92822266 C-213.88357998 171.88208953 -213.62109135 174.84422937 -213.34790039 177.81079102 C-212.38738016 188.05248264 -210.61260313 198.02513574 -208.57519531 208.1015625 C-207.96052718 211.19890549 -207.3794447 214.3012612 -206.8046875 217.40625 C-195.96164743 275.80708776 -174.85312964 334.30018879 -142 384 C-141.27103516 385.10504883 -141.27103516 385.10504883 -140.52734375 386.23242188 C-131.23569872 400.22052509 -120.99288425 413.31655301 -110 426 C-108.96166016 427.20849609 -108.96166016 427.20849609 -107.90234375 428.44140625 C-96.86780796 441.00674469 -85.06557865 452.87128992 -71.59814453 462.81201172 C-70.05735025 463.95736842 -68.5417228 465.13634478 -67.02734375 466.31640625 C-50.15913431 479.37053872 -21.12019201 501 1 501 C1 453.15 1 405.3 1 356 C26.41 356 51.82 356 78 356 C76.55404283 349.05779953 76.55404283 349.05779953 74.43457031 342.52636719 C74.13907791 341.76428955 73.84358551 341.00221191 73.53913879 340.21704102 C73.22200424 339.41838623 72.90486969 338.61973145 72.578125 337.796875 C72.24113083 336.93215576 71.90413666 336.06743652 71.55693054 335.17651367 C70.83446065 333.32454191 70.10909725 331.47369672 69.381073 329.62390137 C67.45631141 324.73334614 65.55223211 319.83472918 63.64453125 314.9375 C63.25709244 313.94482117 62.86965363 312.95214233 62.47047424 311.92938232 C58.55799507 301.89527225 54.73757861 291.82711525 50.9375 281.75 C50.33040956 280.14159933 49.72331338 278.53320083 49.11621094 276.92480469 C47.74247451 273.28382906 46.37058901 269.64216152 45 266 C45.61641357 265.71044434 46.23282715 265.42088867 46.86791992 265.12255859 C58.99979349 258.73502228 65.10538163 242.76400828 69.0546875 230.4453125 C73.78387812 213.2091715 71.30620417 194.59787912 62.81640625 178.9375 C51.44551542 160.54844645 36.51627426 149.77976516 15.64453125 143.62890625 C10.80976715 142.68824461 10.80976715 142.68824461 1 143 C1 103.4 1 63.8 1 23 C-1.38206752 23 -4.19475887 26.60044523 -6 28.1875 Z " fill="#FEFEFE" transform="translate(769,367)"/>
<path d="M0 0 C0.93457031 0.34160156 1.86914062 0.68320312 2.83203125 1.03515625 C18.28255943 7.07932513 28.74472098 16.36813698 35.625 31.62890625 C37.46328186 36.13583024 38.60308585 40.1519772 39 45 C39.0928125 46.12921875 39.185625 47.2584375 39.28125 48.421875 C39.85725384 62.30356754 35.85052352 75.11847947 27 86 C22.14707248 90.98540686 17.17781139 95.71078984 11 99 C10.34 99 9.68 99 9 99 C9.20343018 99.4954834 9.40686035 99.9909668 9.61645508 100.50146484 C16.36158302 117.00414338 22.72370267 133.6505269 29.0625 150.3125 C29.49495026 151.44701599 29.92740051 152.58153198 30.37295532 153.75042725 C31.61714494 157.01622239 32.85798828 160.28326743 34.09765625 163.55078125 C34.47641907 164.5446434 34.85518188 165.53850555 35.24542236 166.56248474 C35.59377136 167.48328323 35.94212036 168.40408173 36.30102539 169.3527832 C36.60617569 170.15674026 36.91132599 170.96069733 37.22572327 171.78901672 C38 174 38 174 39 178 C3.69 178 -31.62 178 -68 178 C-64.40037691 167.80106791 -60.7934559 157.64787502 -56.92578125 147.5546875 C-56.47526901 146.37456085 -56.02475677 145.1944342 -55.56059265 143.97854614 C-54.62142335 141.51980838 -53.68121878 139.06146582 -52.73999023 136.60351562 C-51.54116884 133.47226879 -50.34472679 130.34013708 -49.14970112 127.20744133 C-47.99322167 124.17678551 -46.83443807 121.14701142 -45.67578125 118.1171875 C-45.25073807 117.00358856 -44.82569489 115.88998962 -44.38777161 114.74264526 C-42.35790935 109.44702648 -40.28574026 104.1906218 -38 99 C-38.72445312 98.74347656 -39.44890625 98.48695313 -40.1953125 98.22265625 C-52.00632247 93.07384549 -60.30992445 81.64787993 -65 70 C-69.6838333 56.6444914 -69.48340938 43.06141302 -64 30 C-56.30941429 14.18651756 -44.12571347 5.36665886 -28.015625 -0.75390625 C-19.2947688 -3.41861231 -8.55446098 -3.1447828 0 0 Z " fill="#FDFEFE" transform="translate(784,528)"/>
<path d="M0 0 C17.7271875 -0.0928125 17.7271875 -0.0928125 35.8125 -0.1875 C39.52346924 -0.21481201 43.23443848 -0.24212402 47.05786133 -0.27026367 C51.64196777 -0.28381348 51.64196777 -0.28381348 53.79814148 -0.28633118 C55.28185233 -0.29089289 56.76555311 -0.30134897 58.24919128 -0.31672668 C81.43571791 -0.5447247 81.43571791 -0.5447247 90 7 C93.94533108 12.31060914 96.10472484 16.72627015 96.19287109 23.41430664 C96.20893402 24.52298599 96.22499695 25.63166534 96.24154663 26.77394104 C96.28614697 31.85929702 96.32708772 36.94452314 96.35009766 42.0300293 C96.36338569 44.70643395 96.39385558 47.38102097 96.43212891 50.05737305 C96.48713416 53.92519934 96.50881246 57.79199048 96.5234375 61.66015625 C96.54610687 62.84593765 96.56877625 64.03171906 96.59213257 65.25343323 C96.57057004 73.80830812 94.99581571 80.9900648 88.7890625 87.21875 C88.07492187 87.6415625 87.36078125 88.064375 86.625 88.5 C85.91601562 88.9434375 85.20703125 89.386875 84.4765625 89.84375 C78.33568134 92.710786 72.89891718 93.28483213 66.22265625 93.1953125 C65.50235229 93.19329834 64.78204834 93.19128418 64.03991699 93.18920898 C61.38071207 93.17884171 58.7215988 93.15092005 56.0625 93.125 C50.101875 93.08375 44.14125 93.0425 38 93 C38 108.18 38 123.36 38 139 C25.46 139 12.92 139 0 139 C0 93.13 0 47.26 0 0 Z " fill="#184B81" transform="translate(896,1000)"/>
<path d="M0 0 C1.06765091 -0.00524185 2.13530182 -0.0104837 3.23530579 -0.0158844 C5.48685847 -0.02228357 7.73844467 -0.02099502 9.98999023 -0.01245117 C13.39824488 -0.00397473 16.80480255 -0.0326801 20.21289062 -0.06445312 C46.69660665 -0.15147479 46.69660665 -0.15147479 55.86328125 7.62109375 C61.46660178 13.35506165 62.07101432 21.50661247 62.00854492 29.10571289 C61.98123291 30.22453857 61.9539209 31.34336426 61.92578125 32.49609375 C61.86390625 36.10546875 61.80203125 39.71484375 61.73828125 43.43359375 C49.19828125 43.43359375 36.65828125 43.43359375 23.73828125 43.43359375 C23.40828125 38.81359375 23.07828125 34.19359375 22.73828125 29.43359375 C21.63087547 28.10149156 21.63087547 28.10149156 18.83203125 28.30078125 C17.64609375 28.30335937 16.46015625 28.3059375 15.23828125 28.30859375 C14.05234375 28.30601563 12.86640625 28.3034375 11.64453125 28.30078125 C8.84568703 28.10149156 8.84568703 28.10149156 7.73828125 29.43359375 C7.63856339 31.34817657 7.60747536 33.26641692 7.60546875 35.18359375 C7.60417969 36.34890625 7.60289062 37.51421875 7.6015625 38.71484375 C7.60736328 40.555625 7.60736328 40.555625 7.61328125 42.43359375 C7.60941406 43.66078125 7.60554688 44.88796875 7.6015625 46.15234375 C7.60349609 47.9003125 7.60349609 47.9003125 7.60546875 49.68359375 C7.60716064 51.30007813 7.60716064 51.30007813 7.60888672 52.94921875 C7.45735754 55.37579372 7.45735754 55.37579372 8.73828125 56.43359375 C10.83843736 56.56817789 12.94283781 56.6373071 15.046875 56.6796875 C16.35205078 56.71255859 17.65722656 56.74542969 19.00195312 56.77929688 C21.07506782 56.82626379 23.14817128 56.87056323 25.22143555 56.91040039 C48.9037288 57.38776225 48.9037288 57.38776225 56.140625 64.88671875 C62.42240385 72.09710839 62.89048539 78.98503652 62.9765625 88.19921875 C62.98463425 89.03265808 62.99270599 89.86609741 63.00102234 90.72479248 C63.01480049 92.48301146 63.02555043 94.24125649 63.03344727 95.99951172 C63.04495753 97.7818191 63.06539433 99.56409227 63.0949707 101.34619141 C63.44297965 122.35504435 63.44297965 122.35504435 56.87890625 130.8359375 C50.09850545 136.34151088 42.85757942 139.52084524 34.02075195 139.59472656 C33.08910721 139.60433411 32.15746246 139.61394165 31.19758606 139.62384033 C29.6959919 139.63021515 29.6959919 139.63021515 28.1640625 139.63671875 C27.1256572 139.64241882 26.08725189 139.6481189 25.01737976 139.6539917 C22.81929541 139.66343408 20.62119695 139.66997265 18.4230957 139.67382812 C15.08063629 139.6835073 11.73879885 139.71452758 8.39648438 139.74609375 C6.25651405 139.75262694 4.11653935 139.75787617 1.9765625 139.76171875 C0.98562088 139.77406555 -0.00532074 139.78641235 -1.02629089 139.7991333 C-10.99735404 139.76754794 -18.0836513 137.52626034 -25.37890625 130.625 C-28.17968546 127.36517191 -29.15660113 124.57778482 -30.26171875 120.43359375 C-30.44532959 119.79905273 -30.62894043 119.16451172 -30.81811523 118.51074219 C-31.33204381 116.10430063 -31.374377 113.90954739 -31.359375 111.44921875 C-31.35687744 110.60649414 -31.35437988 109.76376953 -31.35180664 108.89550781 C-31.34270264 107.83557617 -31.33359863 106.77564453 -31.32421875 105.68359375 C-31.29328125 100.60984375 -31.29328125 100.60984375 -31.26171875 95.43359375 C-18.39171875 95.43359375 -5.52171875 95.43359375 7.73828125 95.43359375 C8.23328125 102.85859375 8.23328125 102.85859375 8.73828125 110.43359375 C10.54574259 112.24105509 13.24273906 111.60662858 15.67578125 111.62109375 C17.29806641 111.64236328 17.29806641 111.64236328 18.953125 111.6640625 C21.8787244 111.72407406 21.8787244 111.72407406 23.73828125 109.43359375 C24.03286884 106.92689559 24.03286884 106.92689559 23.96875 104.0234375 C23.96681641 102.95158203 23.96488281 101.87972656 23.96289062 100.77539062 C23.95064453 99.65197266 23.93839844 98.52855469 23.92578125 97.37109375 C23.92513672 96.24380859 23.92449219 95.11652344 23.92382812 93.95507812 C24.38709004 88.83709706 24.38709004 88.83709706 22.73828125 84.43359375 C20.49182163 84.31109751 18.24176989 84.25372429 15.9921875 84.22265625 C14.5826716 84.19454155 13.17316658 84.16587692 11.76367188 84.13671875 C9.54566292 84.09580237 7.3278471 84.05891944 5.10961914 84.03222656 C-17.45467464 83.73723523 -17.45467464 83.73723523 -25.42407227 75.61108398 C-32.87979548 66.77654228 -31.91078189 54.66109088 -31.83813477 43.78149414 C-31.82422956 40.87335528 -31.85847139 37.96841737 -31.89648438 35.06054688 C-31.97754751 15.65544836 -31.97754751 15.65544836 -24.53540039 7.55444336 C-17.56187779 0.70328209 -9.30511344 -0.02700276 0 0 Z " fill="#1A4C82" transform="translate(338.26171875,999.56640625)"/>
<path d="M0 0 C1.44632813 -0.05607422 1.44632813 -0.05607422 2.921875 -0.11328125 C9.53748377 -0.19417864 14.25122362 0.84633539 19.25 5.375 C21.25 8.6875 21.25 8.6875 22.25 11.375 C22.58 7.745 22.91 4.115 23.25 0.375 C35.13 0.375 47.01 0.375 59.25 0.375 C59.25 36.015 59.25 71.655 59.25 108.375 C47.04 108.375 34.83 108.375 22.25 108.375 C21.755 103.92 21.755 103.92 21.25 99.375 C20.610625 100.303125 19.97125 101.23125 19.3125 102.1875 C15.43482852 106.70610892 11.19363923 108.00330067 5.33837891 108.55517578 C-5.09077249 109.2317006 -14.10243087 108.79483671 -22.625 102.125 C-27.47827852 95.84428662 -29.86574156 89.77143102 -29.91113281 81.82739258 C-29.91609772 81.16680847 -29.92106262 80.50622437 -29.92617798 79.82562256 C-29.94078061 77.64024815 -29.94759995 75.45494644 -29.953125 73.26953125 C-29.95887994 71.74598693 -29.96463763 70.22244262 -29.97039795 68.69889832 C-29.98090387 65.50198022 -29.98674857 62.30508723 -29.99023438 59.1081543 C-29.99570495 55.02731021 -30.01970358 50.94680216 -30.04820633 46.86606312 C-30.0669083 43.71661946 -30.07204241 40.56725533 -30.07357025 37.41776085 C-30.0765825 35.91437642 -30.08456243 34.41099291 -30.09775543 32.90766335 C-30.17458075 23.47692683 -30.03194496 16.11558716 -24.5 8.125 C-17.19172835 0.81672835 -9.87218747 0.14288692 0 0 Z " fill="#194C81" transform="translate(1032.75,1030.625)"/>
<path d="M0 0 C0.98835342 -0.0004985 1.97670685 -0.00099701 2.99501038 -0.00151062 C5.07506328 0.00081885 7.1551196 0.01048036 9.23510742 0.02709961 C12.39723263 0.05068486 15.55851222 0.04765217 18.72070312 0.04101562 C20.75130705 0.04659385 22.78190746 0.05370463 24.8125 0.0625 C25.74714584 0.06158859 26.68179169 0.06067719 27.64476013 0.05973816 C38.29279341 0.17321216 47.0629544 1.9535794 54.78515625 9.67578125 C59.17191372 16.66209871 59.90164237 22.71273314 59.765625 30.76953125 C59.76260376 31.62643555 59.75958252 32.48333984 59.75646973 33.36621094 C59.7409098 36.53202559 59.69902698 39.697667 59.66015625 42.86328125 C59.59828125 49.95828125 59.53640625 57.05328125 59.47265625 64.36328125 C41.32265625 64.36328125 23.17265625 64.36328125 4.47265625 64.36328125 C3.51553168 74.24215948 3.51553168 74.24215948 6.47265625 82.36328125 C8.96504194 82.48981323 11.41736066 82.5484795 13.91015625 82.55078125 C14.60431641 82.56302734 15.29847656 82.57527344 16.01367188 82.58789062 C17.83486526 82.59317967 19.65552545 82.48497332 21.47265625 82.36328125 C24.4877857 79.76461516 24.4877857 79.76461516 24.47265625 71.36328125 C36.02265625 71.36328125 47.57265625 71.36328125 59.47265625 71.36328125 C59.47265625 91.2094351 59.47265625 91.2094351 55.47265625 97.36328125 C54.93640625 98.27078125 54.40015625 99.17828125 53.84765625 100.11328125 C45.86677216 107.67411881 36.32918419 108.51559794 25.8671875 108.56640625 C24.48740974 108.57495636 24.48740974 108.57495636 23.07975769 108.5836792 C21.13741189 108.59309753 19.19505034 108.59965054 17.25268555 108.60351562 C14.31204638 108.61319276 11.37211526 108.6442348 8.43164062 108.67578125 C-15.92005346 108.81715463 -15.92005346 108.81715463 -23.52734375 101.61328125 C-24.57921875 100.66195313 -24.57921875 100.66195313 -25.65234375 99.69140625 C-29.79178157 94.55160429 -30.90252916 89.7044871 -30.93139648 83.2097168 C-30.94169136 82.19352264 -30.94169136 82.19352264 -30.95219421 81.15679932 C-30.97035707 78.93764732 -30.96663901 76.71920972 -30.9609375 74.5 C-30.96550547 72.94212111 -30.97081286 71.38424423 -30.9768219 69.82637024 C-30.9857332 66.56751298 -30.98335393 63.30890101 -30.97338867 60.05004883 C-30.96192118 55.8975979 -30.98208575 51.74600022 -31.01130581 47.59366131 C-31.02975942 44.37718934 -31.02935693 41.1609182 -31.02366829 37.94440651 C-31.02351608 36.4147707 -31.02947604 34.88512038 -31.04195976 33.35553551 C-31.15838912 16.74820519 -31.15838912 16.74820519 -26.52734375 9.36328125 C-18.95256178 1.77704164 -10.36550126 -0.10191811 0 0 Z " fill="#1A4C82" transform="translate(822.52734375,1030.63671875)"/>
<path d="M0 0 C0.98835342 -0.0004985 1.97670685 -0.00099701 2.99501038 -0.00151062 C5.07506328 0.00081885 7.1551196 0.01048036 9.23510742 0.02709961 C12.39723263 0.05068486 15.55851222 0.04765217 18.72070312 0.04101562 C20.75130705 0.04659385 22.78190746 0.05370463 24.8125 0.0625 C25.74714584 0.06158859 26.68179169 0.06067719 27.64476013 0.05973816 C38.29279341 0.17321216 47.0629544 1.9535794 54.78515625 9.67578125 C59.17191372 16.66209871 59.90164237 22.71273314 59.765625 30.76953125 C59.76260376 31.62643555 59.75958252 32.48333984 59.75646973 33.36621094 C59.7409098 36.53202559 59.69902698 39.697667 59.66015625 42.86328125 C59.59828125 49.95828125 59.53640625 57.05328125 59.47265625 64.36328125 C41.32265625 64.36328125 23.17265625 64.36328125 4.47265625 64.36328125 C3.51553168 74.24215948 3.51553168 74.24215948 6.47265625 82.36328125 C8.96504194 82.48981323 11.41736066 82.5484795 13.91015625 82.55078125 C14.60431641 82.56302734 15.29847656 82.57527344 16.01367188 82.58789062 C17.83486526 82.59317967 19.65552545 82.48497332 21.47265625 82.36328125 C24.4877857 79.76461516 24.4877857 79.76461516 24.47265625 71.36328125 C36.02265625 71.36328125 47.57265625 71.36328125 59.47265625 71.36328125 C59.47265625 91.2094351 59.47265625 91.2094351 55.47265625 97.36328125 C54.93640625 98.27078125 54.40015625 99.17828125 53.84765625 100.11328125 C45.86677216 107.67411881 36.32918419 108.51559794 25.8671875 108.56640625 C24.48740974 108.57495636 24.48740974 108.57495636 23.07975769 108.5836792 C21.13741189 108.59309753 19.19505034 108.59965054 17.25268555 108.60351562 C14.31204638 108.61319276 11.37211526 108.6442348 8.43164062 108.67578125 C-15.92005346 108.81715463 -15.92005346 108.81715463 -23.52734375 101.61328125 C-24.57921875 100.66195313 -24.57921875 100.66195313 -25.65234375 99.69140625 C-29.79178157 94.55160429 -30.90252916 89.7044871 -30.93139648 83.2097168 C-30.94169136 82.19352264 -30.94169136 82.19352264 -30.95219421 81.15679932 C-30.97035707 78.93764732 -30.96663901 76.71920972 -30.9609375 74.5 C-30.96550547 72.94212111 -30.97081286 71.38424423 -30.9768219 69.82637024 C-30.9857332 66.56751298 -30.98335393 63.30890101 -30.97338867 60.05004883 C-30.96192118 55.8975979 -30.98208575 51.74600022 -31.01130581 47.59366131 C-31.02975942 44.37718934 -31.02935693 41.1609182 -31.02366829 37.94440651 C-31.02351608 36.4147707 -31.02947604 34.88512038 -31.04195976 33.35553551 C-31.15838912 16.74820519 -31.15838912 16.74820519 -26.52734375 9.36328125 C-18.95256178 1.77704164 -10.36550126 -0.10191811 0 0 Z " fill="#1A4C82" transform="translate(444.52734375,1030.63671875)"/>
<path d="M0 0 C12.21 0 24.42 0 37 0 C37 35.97 37 71.94 37 109 C24.79 109 12.58 109 0 109 C-0.495 104.545 -0.495 104.545 -1 100 C-1.680625 100.928125 -2.36125 101.85625 -3.0625 102.8125 C-5.59521534 106.26620273 -8.96619006 107.837601 -13 109 C-16.11642441 109.42700757 -19.17017105 109.47636383 -22.3125 109.4375 C-23.15119629 109.43137695 -23.98989258 109.42525391 -24.85400391 109.41894531 C-32.67288919 109.22176683 -38.23388948 107.2924151 -44.875 103.25 C-51.10164505 96.65708171 -52.15240619 89.21105155 -52.11352539 80.46777344 C-52.11367142 79.60887512 -52.11381744 78.74997681 -52.1139679 77.86505127 C-52.11327196 75.02980004 -52.10549445 72.19461474 -52.09765625 69.359375 C-52.09579094 67.39211055 -52.09436757 65.42484564 -52.09336853 63.45758057 C-52.08955227 58.28233556 -52.07972956 53.10711867 -52.06866455 47.93188477 C-52.0584313 42.64990621 -52.0538668 37.36792311 -52.04882812 32.0859375 C-52.03810651 21.723944 -52.02051689 11.36197874 -52 1 C-39.79 1 -27.58 1 -15 1 C-14.93941406 6.69121094 -14.87882813 12.38242188 -14.81640625 18.24609375 C-14.77593306 21.84180485 -14.73517067 25.43750795 -14.69335938 29.03320312 C-14.62695614 34.74614827 -14.56165056 40.45909175 -14.50268555 46.17211914 C-14.45510435 50.77571693 -14.40276407 55.37923781 -14.34705925 59.98274422 C-14.3266073 61.74307413 -14.30789902 63.50342515 -14.29092598 65.26379204 C-14.26694456 67.72077988 -14.23688191 70.17762099 -14.20532227 72.63452148 C-14.19668907 73.73719109 -14.19668907 73.73719109 -14.18788147 74.86213684 C-14.42956431 78.21726521 -14.42956431 78.21726521 -13 81 C-10.96729438 81.23820921 -10.96729438 81.23820921 -8.625 81.25 C-7.83351563 81.27578125 -7.04203125 81.3015625 -6.2265625 81.328125 C-3.99677874 81.15817743 -3.99677874 81.15817743 -2.38786316 79.94828796 C-0.28737893 76.99961964 -0.56065524 73.99011685 -0.56762695 70.49926758 C-0.5574353 69.73805099 -0.54724365 68.97683441 -0.53674316 68.19255066 C-0.50654893 65.67646995 -0.49733764 63.16076953 -0.48828125 60.64453125 C-0.47143929 58.90002674 -0.4532897 57.15553439 -0.43388367 55.41105652 C-0.38632495 50.81946618 -0.35655367 46.22792517 -0.33044434 41.63616943 C-0.29543324 36.12692288 -0.23840389 30.61786587 -0.18505096 25.10877228 C-0.10646819 16.73920525 -0.05591494 8.3698875 0 0 Z " fill="#1A4D82" transform="translate(667,1030)"/>
<path d="M0 0 C0.85517715 -0.0004985 1.71035431 -0.00099701 2.59144592 -0.00151062 C4.38903136 0.00081601 6.18662093 0.01046049 7.98413086 0.02709961 C10.71172734 0.05068674 13.43834293 0.04764991 16.16601562 0.04101562 C17.92318282 0.04659412 19.68034596 0.05370508 21.4375 0.0625 C22.24090317 0.06158859 23.04430634 0.06067719 23.87205505 0.05973816 C33.55698558 0.17895998 41.27440328 2.02891128 48.78515625 8.36328125 C55.98548659 17.22522628 54.78515625 24.55832611 54.78515625 36.36328125 C42.90515625 36.36328125 31.02515625 36.36328125 18.78515625 36.36328125 C18.29015625 30.91828125 18.29015625 30.91828125 17.78515625 25.36328125 C14.48515625 25.36328125 11.18515625 25.36328125 7.78515625 25.36328125 C7.75830946 28.00918139 7.73839268 30.65481221 7.72265625 33.30078125 C7.71008789 34.43290039 7.71008789 34.43290039 7.69726562 35.58789062 C7.68863184 37.51322438 7.73291292 39.43863706 7.78515625 41.36328125 C9.51286423 43.09098923 11.86348688 42.5336781 14.21875 42.57421875 C15.90581055 42.61675781 15.90581055 42.61675781 17.62695312 42.66015625 C19.98878972 42.71147263 22.35078655 42.75595761 24.71289062 42.79296875 C34.28480733 43.05357681 42.73186996 44.00131127 50.21484375 50.375 C56.02796919 57.73540012 56.42297302 64.1589418 56.30664062 73.34472656 C56.28519173 75.35994772 56.30651107 77.37160591 56.33203125 79.38671875 C56.29804201 87.90102432 55.67991575 93.64320366 50.14453125 100.3515625 C42.27761505 106.82458335 33.97288887 108.51489798 23.9609375 108.56640625 C23.10010056 108.57210632 22.23926361 108.5778064 21.3523407 108.5836792 C19.53088606 108.59311513 17.70941445 108.59965759 15.88793945 108.60351562 C13.12485245 108.61318607 10.36252085 108.64420794 7.59960938 108.67578125 C5.82422314 108.68231559 4.04883161 108.68756437 2.2734375 108.69140625 C1.04951042 108.70992645 1.04951042 108.70992645 -0.19914246 108.7288208 C-8.02432287 108.69898981 -15.35370847 106.76633592 -21.64453125 101.953125 C-30.04425286 93.44892924 -29.21484375 84.01310755 -29.21484375 72.36328125 C-17.33484375 72.36328125 -5.45484375 72.36328125 6.78515625 72.36328125 C7.28015625 77.31328125 7.28015625 77.31328125 7.78515625 82.36328125 C8.84494558 83.64940801 8.84494558 83.64940801 11.2890625 83.4609375 C14.12109375 83.42838542 16.953125 83.39583333 19.78515625 83.36328125 C19.78515625 78.08328125 19.78515625 72.80328125 19.78515625 67.36328125 C17.96371094 67.3375 16.14226562 67.31171875 14.265625 67.28515625 C11.83461264 67.22883936 9.40362398 67.17149287 6.97265625 67.11328125 C5.17924805 67.09201172 5.17924805 67.09201172 3.34960938 67.0703125 C-7.53903574 66.77361917 -16.24958844 64.70787965 -24.55859375 57.4375 C-29.95609185 50.67789742 -29.71466607 43.84147632 -29.66088867 35.45727539 C-29.65237568 33.43337258 -29.68119855 31.41229714 -29.71289062 29.38867188 C-29.7085543 20.66832854 -29.09539013 14.96939198 -23.35546875 8.15625 C-22.7315625 7.62644531 -22.10765625 7.09664062 -21.46484375 6.55078125 C-20.85125 6.00808594 -20.23765625 5.46539063 -19.60546875 4.90625 C-13.25245233 0.80585541 -7.37112647 -0.08428595 0 0 Z " fill="#1A4C82" transform="translate(1232.21484375,1030.63671875)"/>
<path d="M0 0 C0.85517715 -0.0004985 1.71035431 -0.00099701 2.59144592 -0.00151062 C4.38903136 0.00081601 6.18662093 0.01046049 7.98413086 0.02709961 C10.71172734 0.05068674 13.43834293 0.04764991 16.16601562 0.04101562 C17.92318282 0.04659412 19.68034596 0.05370508 21.4375 0.0625 C22.24090317 0.06158859 23.04430634 0.06067719 23.87205505 0.05973816 C32.89473764 0.17080768 40.5888471 1.72072067 47.78515625 7.36328125 C56.2194783 16.02555794 54.78515625 24.14572724 54.78515625 36.36328125 C43.23515625 36.36328125 31.68515625 36.36328125 19.78515625 36.36328125 C19.45515625 33.06328125 19.12515625 29.76328125 18.78515625 26.36328125 C17.75108952 25.10379076 17.75108952 25.10379076 15.5 25.265625 C12.92838542 25.29817708 10.35677083 25.33072917 7.78515625 25.36328125 C7.78515625 30.64328125 7.78515625 35.92328125 7.78515625 41.36328125 C10.29144571 42.61642598 12.11101399 42.53784777 14.9140625 42.609375 C15.94982422 42.64224609 16.98558594 42.67511719 18.05273438 42.70898438 C20.22191995 42.76941812 22.39119332 42.82679038 24.56054688 42.88085938 C35.38014701 43.23461558 43.60195271 44.05953809 51.47265625 52.11328125 C56.77944021 59.57146412 57.28380374 66.33298321 57.22265625 75.23828125 C57.24263672 76.26308594 57.26261719 77.28789063 57.28320312 78.34375 C57.27794024 86.62753214 55.74251632 93.68656332 50.47265625 100.23828125 C42.27635908 106.71907436 34.30803758 108.67639623 24.04296875 108.6640625 C22.83034866 108.67049019 22.83034866 108.67049019 21.5932312 108.67704773 C19.89403209 108.68275428 18.19480856 108.68331864 16.49560547 108.67895508 C13.92372112 108.6757979 11.35299244 108.69929017 8.78125 108.72460938 C-2.17057705 108.76676779 -12.31165322 108.61006424 -21.21484375 101.36328125 C-25.80852372 96.73121398 -28.30041426 92.50487245 -28.41015625 85.9375 C-28.39882955 84.30846452 -28.37300841 82.67951849 -28.33984375 81.05078125 C-28.29859375 78.18390625 -28.25734375 75.31703125 -28.21484375 72.36328125 C-16.66484375 72.36328125 -5.11484375 72.36328125 6.78515625 72.36328125 C7.28015625 77.80828125 7.28015625 77.80828125 7.78515625 83.36328125 C13.28700019 83.455941 13.28700019 83.455941 18.78515625 83.36328125 C20.15048174 82.22626528 20.15048174 82.22626528 19.8828125 79.203125 C19.87121094 77.91535156 19.85960937 76.62757812 19.84765625 75.30078125 C19.83863281 74.01042969 19.82960938 72.72007813 19.8203125 71.390625 C19.80871094 70.39160156 19.79710937 69.39257812 19.78515625 68.36328125 C17.22977708 67.08559167 15.36691697 67.2206152 12.5078125 67.1875 C11.43595703 67.16365234 10.36410156 67.13980469 9.25976562 67.11523438 C7.02036377 67.07293314 4.78072906 67.04132826 2.54101562 67.02148438 C-7.0375006 66.77646582 -16.6415346 65.03609643 -23.79467773 58.15942383 C-29.68042125 50.71548107 -29.83569873 41.8900826 -29.71484375 32.80078125 C-29.7303125 31.63353516 -29.74578125 30.46628906 -29.76171875 29.26367188 C-29.72453584 21.01371398 -28.61410261 14.57664832 -23.35546875 8.05859375 C-22.7315625 7.54039063 -22.10765625 7.0221875 -21.46484375 6.48828125 C-20.54445313 5.68777344 -20.54445313 5.68777344 -19.60546875 4.87109375 C-13.2113402 0.83819568 -7.3803056 -0.08439091 0 0 Z " fill="#1A4C82" transform="translate(1135.21484375,1030.63671875)"/>
<path d="M0 0 C0.92176529 -0.0004985 1.84353058 -0.00099701 2.79322815 -0.00151062 C4.7320472 0.00081753 6.67087 0.01047115 8.60961914 0.02709961 C11.55447845 0.05068572 14.49842951 0.04765112 17.44335938 0.04101562 C19.33724491 0.04659398 21.23112667 0.05370484 23.125 0.0625 C23.99402451 0.06158859 24.86304901 0.06067719 25.75840759 0.05973816 C36.22155651 0.17926829 44.87020044 2.10457544 52.44140625 9.67578125 C57.06402638 17.03773182 57.53180709 23.37941113 57.31640625 31.86328125 C57.25453125 35.32828125 57.19265625 38.79328125 57.12890625 42.36328125 C45.24890625 42.36328125 33.36890625 42.36328125 21.12890625 42.36328125 C20.79890625 38.07328125 20.46890625 33.78328125 20.12890625 29.36328125 C19.09857236 28.11154346 19.09857236 28.11154346 16.87890625 28.23046875 C15.51765625 28.23433594 15.51765625 28.23433594 14.12890625 28.23828125 C13.22140625 28.23570313 12.31390625 28.233125 11.37890625 28.23046875 C9.15924014 28.11154346 9.15924014 28.11154346 8.12890625 29.36328125 C8.03043658 30.92327173 8.00092007 32.48768669 7.99951172 34.05078125 C7.99478348 35.54738281 7.99478348 35.54738281 7.98995972 37.07421875 C7.99198395 38.15960937 7.99400818 39.245 7.99609375 40.36328125 C7.99513702 41.46929688 7.9941803 42.5753125 7.99319458 43.71484375 C7.99251258 46.05859433 7.99436821 48.40234678 7.99853516 50.74609375 C8.00388311 54.34769913 7.99859078 57.94917978 7.9921875 61.55078125 C7.99284828 63.82161486 7.99412943 66.09244839 7.99609375 68.36328125 C7.99406952 69.44867187 7.99204529 70.5340625 7.98995972 71.65234375 C7.99311188 72.65007812 7.99626404 73.6478125 7.99951172 74.67578125 C8.00030731 75.55878906 8.00110291 76.44179687 8.00192261 77.3515625 C7.90619951 79.36096017 7.90619951 79.36096017 9.12890625 80.36328125 C10.60539501 80.46152121 12.08666042 80.49301644 13.56640625 80.48828125 C14.36949219 80.49085937 15.17257812 80.4934375 16 80.49609375 C18.18288556 80.49906451 18.18288556 80.49906451 20.12890625 79.36328125 C20.45890625 75.07328125 20.78890625 70.78328125 21.12890625 66.36328125 C33.00890625 66.36328125 44.88890625 66.36328125 57.12890625 66.36328125 C57.21140625 69.80765625 57.29390625 73.25203125 57.37890625 76.80078125 C57.41532227 77.8673999 57.45173828 78.93401855 57.48925781 80.03295898 C57.58032274 87.97102968 55.49026859 93.3671296 51.50390625 100.11328125 C43.66262251 107.54186584 34.25949283 108.51005499 23.9609375 108.6015625 C23.08547775 108.60963425 22.21001801 108.61770599 21.30802917 108.62602234 C19.45984849 108.63980637 17.61164296 108.65055373 15.76342773 108.65844727 C13.89095492 108.66994874 12.01851442 108.69037147 10.14624023 108.7199707 C-12.85818983 109.08299574 -12.85818983 109.08299574 -22.80859375 101.73828125 C-29.72628285 94.83349022 -30.38915124 86.11152935 -30.42687988 76.76290894 C-30.41972028 75.29375689 -30.41151635 73.82460961 -30.40234375 72.35546875 C-30.40504462 70.81950638 -30.40893197 69.28354569 -30.41394043 67.74758911 C-30.41980406 64.54526316 -30.41137266 61.34338658 -30.39257812 58.14111328 C-30.369751 54.05465004 -30.38295443 49.96923576 -30.40686798 45.88281059 C-30.42137856 42.71701263 -30.41669675 39.55146013 -30.40635681 36.38565445 C-30.40370602 34.87949623 -30.40690074 33.37331506 -30.41627502 31.86718369 C-30.46135447 22.59432514 -30.2280672 15.53489889 -24.01171875 8.15625 C-23.3878125 7.62644531 -22.76390625 7.09664062 -22.12109375 6.55078125 C-21.5075 6.00808594 -20.89390625 5.46539063 -20.26171875 4.90625 C-13.68095041 0.65885867 -7.62899133 -0.08066263 0 0 Z " fill="#1A4C82" transform="translate(545.87109375,1030.63671875)"/>
<path d="M0 0 C26.4 0 52.8 0 80 0 C80 26.07 80 52.14 80 79 C53.6 79 27.2 79 0 79 C0 52.93 0 26.86 0 0 Z " fill="#279DD7" transform="translate(1015,414)"/>
<path d="M0 0 C0 10.56 0 21.12 0 32 C-8.125 32.3125 -8.125 32.3125 -10.64892578 32.38793945 C-15.39961853 32.62088323 -18.93596873 33.30093972 -23 36 C-25.35484127 39.4731373 -25.27375289 42.66943037 -25.31884766 46.78808594 C-25.33391609 47.79845665 -25.33391609 47.79845665 -25.34928894 48.82923889 C-25.38009021 51.0476092 -25.39714721 53.265859 -25.4140625 55.484375 C-25.43277665 57.02566564 -25.45235025 58.56694606 -25.4727478 60.10821533 C-25.52404911 64.15889458 -25.56368544 68.20960704 -25.60089111 72.26043701 C-25.64798905 77.12392479 -25.70957829 81.98724805 -25.76873779 86.8506012 C-25.85692572 94.23366765 -25.92670708 101.61670296 -26 109 C-38.21 109 -50.42 109 -63 109 C-63 73.36 -63 37.72 -63 1 C-51.12 1 -39.24 1 -27 1 C-26.505 6.94 -26.505 6.94 -26 13 C-25.46375 12.113125 -24.9275 11.22625 -24.375 10.3125 C-17.89912024 0.66708754 -11.19479067 0 0 0 Z " fill="#194B81" transform="translate(784,1030)"/>
<path d="M0 0 C20.13 0 40.26 0 61 0 C61 20.13 61 40.26 61 61 C40.87 61 20.74 61 0 61 C0 40.87 0 20.74 0 0 Z " fill="#184B81" transform="translate(1094,521)"/>
<path d="M0 0 C1.08590927 -0.00855011 1.08590927 -0.00855011 2.1937561 -0.01727295 C3.72876518 -0.0267362 5.2637947 -0.03326217 6.79882812 -0.03710938 C9.14749675 -0.0468066 11.49528731 -0.07781229 13.84375 -0.109375 C15.33332812 -0.11590569 16.82291252 -0.1211559 18.3125 -0.125 C19.01571381 -0.1373468 19.71892761 -0.1496936 20.44345093 -0.16241455 C23.14480827 -0.1500794 25.25393675 -0.11423619 27.61108398 1.28369141 C29.33901567 4.09923522 30.21167989 7.09173208 31.11328125 10.2421875 C31.54673791 11.6919189 31.98084554 13.14145579 32.41552734 14.59082031 C32.63948181 15.34754028 32.86343628 16.10426025 33.09417725 16.88391113 C34.24393086 20.72127063 35.46690574 24.53501287 36.68359375 28.3515625 C37.16901101 29.8852929 37.65403642 31.41914738 38.13867188 32.953125 C38.87897878 35.29506936 39.62017954 37.63671235 40.36401367 39.97753906 C41.09817655 42.28888877 41.82873423 44.6013509 42.55859375 46.9140625 C42.78352005 47.61912933 43.00844635 48.32419617 43.2401886 49.05062866 C44.7890625 53.9754905 44.7890625 53.9754905 44.7890625 56.203125 C46.4596875 56.14125 46.4596875 56.14125 48.1640625 56.078125 C51.7890625 56.203125 51.7890625 56.203125 53.7890625 58.203125 C54.0546875 60.078125 54.0546875 60.078125 54.0390625 62.203125 C54.04679687 63.255 54.04679687 63.255 54.0546875 64.328125 C53.7890625 66.203125 53.7890625 66.203125 51.7890625 68.203125 C49.0234375 68.46191406 49.0234375 68.46191406 45.5390625 68.46875 C43.66734375 68.47261719 43.66734375 68.47261719 41.7578125 68.4765625 C39.79328125 68.46496094 39.79328125 68.46496094 37.7890625 68.453125 C36.479375 68.46085938 35.1696875 68.46859375 33.8203125 68.4765625 C32.5725 68.47398437 31.3246875 68.47140625 30.0390625 68.46875 C28.88921875 68.46649414 27.739375 68.46423828 26.5546875 68.46191406 C23.7890625 68.203125 23.7890625 68.203125 21.7890625 66.203125 C21.5234375 64.328125 21.5234375 64.328125 21.5390625 62.203125 C21.53132813 61.15125 21.53132813 61.15125 21.5234375 60.078125 C21.7890625 58.203125 21.7890625 58.203125 23.7890625 56.203125 C26.9140625 56.078125 26.9140625 56.078125 29.7890625 56.203125 C29.1290625 53.893125 28.4690625 51.583125 27.7890625 49.203125 C20.8590625 49.203125 13.9290625 49.203125 6.7890625 49.203125 C6.1290625 51.513125 5.4690625 53.823125 4.7890625 56.203125 C5.7584375 56.1825 6.7278125 56.161875 7.7265625 56.140625 C10.7890625 56.203125 10.7890625 56.203125 11.7890625 57.203125 C11.88730187 58.86741551 11.91879881 60.53594431 11.9140625 62.203125 C11.91792969 63.564375 11.91792969 63.564375 11.921875 64.953125 C11.7890625 67.203125 11.7890625 67.203125 10.7890625 68.203125 C8.71644174 68.29079612 6.64085956 68.31008373 4.56640625 68.30078125 C2.67631836 68.29594727 2.67631836 68.29594727 0.74804688 68.29101562 C-0.59244859 68.28265903 -1.93294338 68.27419407 -3.2734375 68.265625 C-4.61783692 68.2606116 -5.9622381 68.25604842 -7.30664062 68.25195312 C-10.60811691 68.24011988 -13.90950553 68.22363471 -17.2109375 68.203125 C-18.32539248 65.97421505 -18.37574036 64.67257394 -18.3984375 62.203125 C-18.41261719 61.501875 -18.42679688 60.800625 -18.44140625 60.078125 C-18.2109375 58.203125 -18.2109375 58.203125 -16.2109375 56.203125 C-12.5859375 56.078125 -12.5859375 56.078125 -9.2109375 56.203125 C-9.10209229 55.22915771 -8.99324707 54.25519043 -8.88110352 53.25170898 C-8.24228244 48.80616378 -6.90318813 44.67725761 -5.48828125 40.42578125 C-5.22334366 39.61443222 -4.95840607 38.80308319 -4.68544006 37.96714783 C-3.84519323 35.39815876 -2.99695561 32.83189251 -2.1484375 30.265625 C-1.57433813 28.51514824 -1.00076499 26.76449879 -0.42773438 25.01367188 C0.97178555 20.74146811 2.37847382 16.47168624 3.7890625 12.203125 C3.09039063 12.22632813 2.39171875 12.24953125 1.671875 12.2734375 C0.30675781 12.30050781 0.30675781 12.30050781 -1.0859375 12.328125 C-2.44332031 12.36292969 -2.44332031 12.36292969 -3.828125 12.3984375 C-6.2109375 12.203125 -6.2109375 12.203125 -8.2109375 10.203125 C-8.44140625 8.07421875 -8.44140625 8.07421875 -8.3984375 5.640625 C-8.38876953 4.43212891 -8.38876953 4.43212891 -8.37890625 3.19921875 C-7.99597977 -1.35137272 -3.60228191 0.0216458 0 0 Z " fill="#2B9FD7" transform="translate(1296.2109375,935.796875)"/>
<path d="M0 0 C16.5 0 33 0 50 0 C50 16.5 50 33 50 50 C33.5 50 17 50 0 50 C0 33.5 0 17 0 0 Z " fill="#2A9ED7" transform="translate(1157,435)"/>
<path d="M0 0 C0.83272934 0.00222061 1.66545868 0.00444122 2.52342224 0.00672913 C3.46432205 0.00680466 4.40522186 0.00688019 5.37463379 0.00695801 C6.39754013 0.01211929 7.42044647 0.01728058 8.47434998 0.02259827 C9.51614914 0.02401321 10.5579483 0.02542816 11.63131714 0.02688599 C14.97355467 0.03250372 18.31572629 0.04505922 21.65794373 0.05775452 C23.91770839 0.06276723 26.17747409 0.06733053 28.4372406 0.07142639 C33.98999763 0.08247891 39.54271597 0.09923428 45.09544373 0.12025452 C46.60478589 3.13893885 46.27055045 5.7932268 46.09544373 9.12025452 C45.43544373 10.11025452 44.77544373 11.10025452 44.09544373 12.12025452 C39.14544373 12.12025452 34.19544373 12.12025452 29.09544373 12.12025452 C29.09544373 26.64025452 29.09544373 41.16025452 29.09544373 56.12025452 C34.37544373 56.12025452 39.65544373 56.12025452 45.09544373 56.12025452 C47.09544373 58.12025452 47.09544373 58.12025452 47.36106873 59.99525452 C47.35591248 60.69650452 47.35075623 61.39775452 47.34544373 62.12025452 C47.3531781 63.17212952 47.3531781 63.17212952 47.36106873 64.24525452 C47.09544373 66.12025452 47.09544373 66.12025452 45.09544373 68.12025452 C43.03939819 68.36749268 43.03939819 68.36749268 40.47801208 68.36317444 C39.52039474 68.36625107 38.5627774 68.3693277 37.57614136 68.37249756 C36.53965958 68.36531204 35.5031778 68.35812653 34.43528748 68.35072327 C32.84497459 68.35003593 32.84497459 68.35003593 31.22253418 68.34933472 C28.97890607 68.34631022 26.7352801 68.33841808 24.49168396 68.32606506 C21.04377363 68.30781185 17.59613168 68.3055553 14.1481781 68.30580139 C11.97304555 68.30088628 9.79791484 68.29505799 7.62278748 68.28822327 C6.58428146 68.28711044 5.54577545 68.28599762 4.47579956 68.28485107 C3.04410179 68.2752813 3.04410179 68.2752813 1.58348083 68.26551819 C0.73901901 68.26170639 -0.10544281 68.25789459 -0.97549438 68.25396729 C-2.90455627 68.12025452 -2.90455627 68.12025452 -3.90455627 67.12025452 C-4.00279623 65.64376576 -4.03429146 64.16250035 -4.02955627 62.68275452 C-4.0321344 61.87966858 -4.03471252 61.07658264 -4.03736877 60.24916077 C-3.90455627 58.12025452 -3.90455627 58.12025452 -2.90455627 56.12025452 C2.70544373 56.12025452 8.31544373 56.12025452 14.09544373 56.12025452 C14.09544373 41.60025452 14.09544373 27.08025452 14.09544373 12.12025452 C9.14544373 12.12025452 4.19544373 12.12025452 -0.90455627 12.12025452 C-2.90455627 10.12025452 -2.90455627 10.12025452 -3.13502502 7.99134827 C-3.12084534 7.18826233 -3.10666565 6.38517639 -3.09205627 5.55775452 C-3.08561096 4.75209045 -3.07916565 3.94642639 -3.07252502 3.11634827 C-2.85052557 0.47816867 -2.64800658 0.16719629 0 0 Z " fill="#2D9FD8" transform="translate(1368.904556274414,935.8797454833984)"/>
<path d="M0 0 C9.57 0 19.14 0 29 0 C29 9.57 29 19.14 29 29 C19.43 29 9.86 29 0 29 C0 19.43 0 9.86 0 0 Z " fill="#184B81" transform="translate(1200,375)"/>
<path d="M0 0 C1.31291016 -0.02513672 1.31291016 -0.02513672 2.65234375 -0.05078125 C5.57810213 0.39021637 6.26727655 1.00674006 8.0625 3.3125 C8.44345093 5.4306488 8.44345093 5.4306488 8.45068359 7.90405273 C8.46486832 9.29580971 8.46486832 9.29580971 8.4793396 10.71568298 C8.47326691 11.71571854 8.46719421 12.71575409 8.4609375 13.74609375 C8.46524277 15.29031761 8.46524277 15.29031761 8.46963501 16.86573792 C8.47167718 19.04371693 8.46613666 21.22171423 8.45361328 23.3996582 C8.43757862 26.73365349 8.45344887 30.06643342 8.47265625 33.40039062 C8.47067353 35.51562768 8.46682925 37.63086397 8.4609375 39.74609375 C8.47004654 41.24311073 8.47004654 41.24311073 8.4793396 42.77037048 C8.46988312 43.70136063 8.46042664 44.63235077 8.45068359 45.59155273 C8.44829681 46.40857162 8.44591003 47.22559052 8.44345093 48.06736755 C7.96865297 50.86558703 6.99137213 52.25628025 5.0625 54.3125 C2.65234375 54.7734375 2.65234375 54.7734375 0 54.6875 C-0.87785156 54.67460938 -1.75570313 54.66171875 -2.66015625 54.6484375 C-4.9375 54.3125 -4.9375 54.3125 -6.9375 52.3125 C-7.19146729 50.18725586 -7.19146729 50.18725586 -7.19628906 47.52734375 C-7.20259338 46.5329126 -7.20889771 45.53848145 -7.21539307 44.51391602 C-7.2113446 43.43682373 -7.20729614 42.35973145 -7.203125 41.25 C-7.20503845 40.147771 -7.2069519 39.04554199 -7.20892334 37.90991211 C-7.21028612 35.57633232 -7.20658322 33.24274497 -7.19824219 30.90917969 C-7.18754421 27.32730153 -7.19813458 23.74592497 -7.2109375 20.1640625 C-7.20961592 17.90104055 -7.20705357 15.63801892 -7.203125 13.375 C-7.20717346 12.29790771 -7.21122192 11.22081543 -7.21539307 10.11108398 C-7.20908875 9.11665283 -7.20278442 8.12222168 -7.19628906 7.09765625 C-7.19469788 6.21988525 -7.19310669 5.34211426 -7.19146729 4.43774414 C-6.65451197 -0.055595 -3.85498049 0.01698229 0 0 Z " fill="#FBFCFD" transform="translate(1046.9375,1057.6875)"/>
<path d="M0 0 C5.94 0 11.88 0 18 0 C20.51704805 2.51704805 20.24669599 4.07672899 20.27789307 7.51159668 C20.2738446 8.26058228 20.26979614 9.00956787 20.265625 9.78125 C20.26753845 10.55053833 20.2694519 11.31982666 20.27142334 12.11242676 C20.27278508 13.7398308 20.26908939 15.3672457 20.26074219 16.99462891 C20.25004221 19.49015631 20.26063751 21.98496382 20.2734375 24.48046875 C20.2721159 26.05989743 20.2695535 27.63932566 20.265625 29.21875 C20.26967346 29.9677356 20.27372192 30.71672119 20.27789307 31.48840332 C20.22992243 36.77007757 20.22992243 36.77007757 18 39 C12.06 39 6.12 39 0 39 C0 26.13 0 13.26 0 0 Z " fill="#FEFEFE" transform="translate(934,1027)"/>
<path d="M0 0 C7.92 0 15.84 0 24 0 C24 8.25 24 16.5 24 25 C16.08 25 8.16 25 0 25 C0 16.75 0 8.5 0 0 Z " fill="#32A2D9" transform="translate(1164,316)"/>
<path d="M0 0 C7.92 0 15.84 0 24 0 C24 7.92 24 15.84 24 24 C16.08 24 8.16 24 0 24 C0 16.08 0 8.16 0 0 Z " fill="#1C4E83" transform="translate(1242,438)"/>
<path d="M0 0 C1.01513672 -0.00483398 1.01513672 -0.00483398 2.05078125 -0.00976562 C5.73473014 0.03019832 7.36207954 0.22055303 10.5 2.3125 C10.72212754 5.28012397 10.78037029 7.98154015 10.6875 10.9375 C10.625625 13.70125 10.56375 16.465 10.5 19.3125 C3.57 19.3125 -3.36 19.3125 -10.5 19.3125 C-10.561875 16.734375 -10.62375 14.15625 -10.6875 11.5 C-10.71481201 10.69199951 -10.74212402 9.88399902 -10.77026367 9.05151367 C-10.80353016 6.2002533 -10.79525218 3.87646484 -9.45703125 1.3203125 C-6.40052664 -0.25369586 -3.35172856 -0.07980306 0 0 Z " fill="#F1F4F7" transform="translate(836.5,1055.6875)"/>
<path d="M0 0 C1.01513672 -0.00483398 1.01513672 -0.00483398 2.05078125 -0.00976562 C5.73473014 0.03019832 7.36207954 0.22055303 10.5 2.3125 C10.72212754 5.28012397 10.78037029 7.98154015 10.6875 10.9375 C10.625625 13.70125 10.56375 16.465 10.5 19.3125 C3.57 19.3125 -3.36 19.3125 -10.5 19.3125 C-10.561875 16.734375 -10.62375 14.15625 -10.6875 11.5 C-10.71481201 10.69199951 -10.74212402 9.88399902 -10.77026367 9.05151367 C-10.80353016 6.2002533 -10.79525218 3.87646484 -9.45703125 1.3203125 C-6.40052664 -0.25369586 -3.35172856 -0.07980306 0 0 Z " fill="#F1F4F7" transform="translate(458.5,1055.6875)"/>
<path d="M0 0 C2 1 2 1 2.68603516 2.68652344 C2.98453369 3.76208496 2.98453369 3.76208496 3.2890625 4.859375 C3.61777344 6.03886719 3.61777344 6.03886719 3.953125 7.2421875 C4.17484375 8.06976562 4.3965625 8.89734375 4.625 9.75 C4.85445312 10.56210937 5.08390625 11.37421875 5.3203125 12.2109375 C6.47656662 16.43677102 7 19.51023653 7 24 C2.71 24 -1.58 24 -6 24 C-5.38503301 20.31019806 -4.80933831 17.01765863 -3.80859375 13.4765625 C-3.58623047 12.68378906 -3.36386719 11.89101563 -3.13476562 11.07421875 C-2.78961914 9.86185547 -2.78961914 9.86185547 -2.4375 8.625 C-2.20353516 7.79355469 -1.96957031 6.96210937 -1.72851562 6.10546875 C-1.15517202 4.06951391 -0.5779756 2.03464473 0 0 Z " fill="#F6FBFD" transform="translate(1313,948)"/>
<path d="M0 0 C2.97 0 5.94 0 9 0 C9 2.97 9 5.94 9 9 C6.03 9 3.06 9 0 9 C0 6.03 0 3.06 0 0 Z " fill="#FFFFCF" transform="translate(1230,319)"/>
</svg>
